<svg width="140" height="42" viewBox="0 0 140 42" fill="none" xmlns="http://www.w3.org/2000/svg">
  <rect width="140" height="42" rx="8" fill="black"/>
  <path d="M30 13.5C29.1716 14.4406 27.7188 15.2812 26.4375 15.1875C26.2812 13.8125 26.9062 12.4062 27.6562 11.5625C28.4688 10.625 29.9844 9.84375 31.125 9.84375C31.2188 11.2812 30.7812 12.625 30 13.5ZM31.1562 15.2812C29.2188 15.1875 27.5625 16.4062 26.6562 16.4062C25.7188 16.4062 24.2812 15.3438 22.75 15.375C20.75 15.4062 18.9062 16.5312 17.9062 18.3125C15.8125 21.9375 17.375 27.2812 19.375 30.1875C20.375 31.625 21.5625 33.2188 23.125 33.1562C24.625 33.0938 25.1875 32.1875 27 32.1875C28.8125 32.1875 29.3125 33.1562 30.9062 33.125C32.5625 33.0938 33.5938 31.6875 34.5625 30.2188C35.6875 28.5625 36.1562 26.9688 36.1875 26.875C36.1562 26.8438 32.4688 25.4688 32.4375 21.875C32.4062 18.9062 35.375 17.2812 35.4688 17.2188C34.0938 15.1875 31.9375 15.2812 31.1562 15.2812Z" fill="white"/>
  <text x="50" y="20" fill="white" font-family="system-ui" font-size="12">Download on the</text>
  <text x="50" y="35" fill="white" font-family="system-ui" font-size="20" font-weight="600">App Store</text>
</svg> 