<svg width="120" height="40" viewBox="0 0 120 40" fill="none" xmlns="http://www.w3.org/2000/svg">
  <path d="M20 8C13.3726 8 8 13.3726 8 20C8 26.6274 13.3726 32 20 32C26.6274 32 32 26.6274 32 20C32 13.3726 26.6274 8 20 8ZM20 28C15.5817 28 12 24.4183 12 20C12 15.5817 15.5817 12 20 12C24.4183 12 28 15.5817 28 20C28 24.4183 24.4183 28 20 28Z" fill="rgb(16, 123, 83)"/>
  <path d="M44 14V26H48V21.5C48 19.5 49.5 18 51.5 18C53.5 18 55 19.5 55 21.5V26H59V21C59 17.5 56.5 15 53 15C51.5 15 50 15.5 49 16.5V14H44Z" fill="rgb(16, 123, 83)"/>
  <path d="M62 14V26H66V21.5C66 19.5 67.5 18 69.5 18C71.5 18 73 19.5 73 21.5V26H77V21C77 17.5 74.5 15 71 15C69.5 15 68 15.5 67 16.5V14H62Z" fill="rgb(16, 123, 83)"/>
  <path d="M80 20C80 23.866 83.134 27 87 27C89 27 90.5 26.5 91.5 25.5V26H96V14H91.5V14.5C90.5 13.5 89 13 87 13C83.134 13 80 16.134 80 20ZM87 23C85.3431 23 84 21.6569 84 20C84 18.3431 85.3431 17 87 17C88.6569 17 90 18.3431 90 20C90 21.6569 88.6569 23 87 23Z" fill="rgb(16, 123, 83)"/>
  <path d="M98 20C98 23.866 101.134 27 105 27C107 27 108.5 26.5 109.5 25.5V26H114V14H109.5V14.5C108.5 13.5 107 13 105 13C101.134 13 98 16.134 98 20ZM105 23C103.343 23 102 21.6569 102 20C102 18.3431 103.343 17 105 17C106.657 17 108 18.3431 108 20C108 21.6569 106.657 23 105 23Z" fill="rgb(16, 123, 83)"/>
</svg> 